<svg xmlns="http://www.w3.org/2000/svg" viewBox="0 0 240 240" width="240" height="240">
  <defs>
    <radialGradient id="boom" cx="50%" cy="50%" r="50%">
      <stop offset="0%" stop-color="#FFF6C9"/>
      <stop offset="35%" stop-color="#FFD23F"/>
      <stop offset="65%" stop-color="#FF8C00"/>
      <stop offset="100%" stop-color="#E63900" stop-opacity="0"/>
    </radialGradient>
    <radialGradient id="core" cx="50%" cy="50%" r="50%">
      <stop offset="0%" stop-color="#FFFFFF"/>
      <stop offset="60%" stop-color="#FFF3B0"/>
      <stop offset="100%" stop-color="#FFC93C"/>
    </radialGradient>
  </defs>
  <!-- ledakan utama -->
  <circle cx="120" cy="120" r="88" fill="url(#boom)"/>
  <!-- inti terang -->
  <circle cx="120" cy="120" r="42" fill="url(#core)"/>
  <!-- lidah api / spike -->
  <g fill="#FF8C00">
    <path d="M120 8 L132 52 L120 44 L108 52 Z"/>
    <path d="M120 232 L132 188 L120 196 L108 188 Z"/>
    <path d="M8 120 L52 108 L44 120 L52 132 Z"/>
    <path d="M232 120 L188 132 L196 120 L188 108 Z"/>
    <path d="M48 48 L80 72 L70 78 L62 70 Z"/>
    <path d="M192 192 L160 168 L170 162 L178 170 Z"/>
    <path d="M192 48 L168 80 L162 70 L170 62 Z"/>
    <path d="M48 192 L72 160 L78 170 L70 178 Z"/>
  </g>
  <g fill="#FFB300">
    <path d="M120 20 L128 56 L120 50 L112 56 Z"/>
    <path d="M120 220 L128 184 L120 190 L112 184 Z"/>
    <path d="M20 120 L56 112 L50 120 L56 128 Z"/>
    <path d="M220 120 L184 128 L190 120 L184 112 Z"/>
    <path d="M58 58 L84 78 L76 84 L70 76 Z"/>
    <path d="M182 182 L156 162 L164 156 L170 164 Z"/>
    <path d="M182 58 L162 84 L156 76 L164 70 Z"/>
    <path d="M58 182 L78 156 L84 164 L76 170 Z"/>
  </g>
  <!-- percikan kecil -->
  <g fill="#FFD23F">
    <circle cx="30" cy="60" r="5"/>
    <circle cx="210" cy="60" r="5"/>
    <circle cx="30" cy="180" r="5"/>
    <circle cx="210" cy="180" r="5"/>
    <circle cx="60" cy="30" r="4"/>
    <circle cx="180" cy="210" r="4"/>
    <circle cx="60" cy="210" r="4"/>
    <circle cx="180" cy="30" r="4"/>
  </g>
</svg>